<?xml version="1.0" encoding="utf-8"?>
<!-- Generator: Adobe Illustrator 21.1.0, SVG Export Plug-In . SVG Version: 6.00 Build 0)  -->
<svg version="1.1" id="Layer_1" xmlns="http://www.w3.org/2000/svg" xmlns:xlink="http://www.w3.org/1999/xlink" x="0px" y="0px"
	 viewBox="0 0 101 101" style="enable-background:new 0 0 101 101;" xml:space="preserve">
<style type="text/css">
	.st0{fill:#FFFFFF;}
</style>
<g id="g5" transform="scale(0.58823529,0.58823529)">
	<path id="path7" class="st0" d="M85.7,27.2c0,0-50.2,0-62.7,3.3c-6.7,1.8-12.3,7.4-14.1,14.3C5.5,57.3,5.5,83.3,5.5,83.3
		s0,26.1,3.3,38.5c1.8,6.9,7.3,12.3,14.1,14.1c12.7,3.4,62.7,3.4,62.7,3.4s50.2,0,62.7-3.3c6.9-1.8,12.3-7.3,14.1-14.1
		c3.3-12.5,3.3-38.5,3.3-38.5s0.1-26.1-3.3-38.7c-1.8-6.9-7.3-12.3-14.1-14.1C135.8,27.2,85.7,27.2,85.7,27.2z M69.7,59.3l41.7,24
		l-41.7,24V59.3z"/>
</g>
</svg>
