<?xml version="1.0" encoding="utf-8"?>
<!-- Generator: Adobe Illustrator 21.1.0, SVG Export Plug-In . SVG Version: 6.00 Build 0)  -->
<svg version="1.1" id="Layer_1" xmlns="http://www.w3.org/2000/svg" xmlns:xlink="http://www.w3.org/1999/xlink" x="0px" y="0px"
     viewBox="0 0 100 100" style="enable-background:new 0 0 100 100;" xml:space="preserve">
<style type="text/css">
	.st0{fill:#FFFFFF;}
</style>
<g id="XMLID_7_">
	<path id="XMLID_5_" class="st0" d="M94.7,23.5c-3.2,1.4-6,1.5-8.9,0.1c3.7-2.2,3.9-3.8,5.3-8c-3.5,2.1-7.4,3.6-11.5,4.4
		c-3.3-3.5-8-5.7-13.2-5.7c-10,0-18.1,8.1-18.1,18.1c0,1.4,0.2,2.8,0.5,4.1c-15-0.8-28.4-8-37.3-18.9c-1.6,2.6-2.5,5.7-2.5,9
		c0,6.3,3.2,11.8,8,15.1c-3-0.1-5.8-0.9-8.2-2.3v0.2c0,8.8,6.2,16.1,14.5,17.7c-2.7,0.7-5.4,0.8-8.2,0.3c2.3,7.2,9,12.4,16.9,12.6
		c-7.7,6.1-17.3,8.6-26.8,7.5c8,5.1,17.5,8.1,27.7,8.1c33.3,0,51.5-27.6,51.5-51.5V32C88,29.5,92.3,27.1,94.7,23.5L94.7,23.5z"/>
</g>
</svg>
