<?xml version="1.0" encoding="utf-8"?>
		<!-- Generator: Adobe Illustrator 21.1.0, SVG Export Plug-In . SVG Version: 6.00 Build 0)  -->
		<svg version="1.1" id="Layer_1" xmlns="http://www.w3.org/2000/svg" xmlns:xlink="http://www.w3.org/1999/xlink" x="0px" y="0px"
             viewBox="0 0 100 100" style="enable-background:new 0 0 100 100;" xml:space="preserve">
		<style type="text/css">
	.st0{fill:#FFFFFF;}
</style>
		<path class="st0" d="M499.8,200.5h-4.3v-1.9c0-0.9,0.6-1.1,1-1.1h3v-3.9h-4.3c-3.9,0-4.7,2.9-4.7,4.8v2.1h-3v4h3v12h5v-12h3.9
 	L499.8,200.5L499.8,200.5z"/>
		<path class="st0" d="M499.8,200.5h-4.3v-1.9c0-0.9,0.6-1.1,1-1.1h3v-3.9h-4.3c-3.9,0-4.7,2.9-4.7,4.8v2.1h-3v4h3v12h5v-12h3.9
 	L499.8,200.5L499.8,200.5z"/>
		<g id="XMLID_7_">
	<path id="XMLID_5_" class="st0" d="M69.3,35.8H55.9v-6c0-2.8,1.9-3.5,3.2-3.5h9.4V14H54.9c-12.3,0-14.7,9.2-14.7,15.1v6.7h-9.4
		v12.6h9.4v37.7h15.7V48.4H68L69.3,35.8z"/>
</g>
</svg>
