<?xml version="1.0" encoding="utf-8"?>
<!-- Generator: Adobe Illustrator 21.1.0, SVG Export Plug-In . SVG Version: 6.00 Build 0)  -->
<svg version="1.1" id="Layer_1" xmlns="http://www.w3.org/2000/svg" xmlns:xlink="http://www.w3.org/1999/xlink" x="0px" y="0px"
	 viewBox="0 0 63 29.7" style="enable-background:new 0 0 63 29.7;" xml:space="preserve">
<style type="text/css">
	.st0{fill:#BBFFF2;}
	.st1{clip-path:url(#SVGID_4_);}
	.st2{clip-path:url(#SVGID_6_);fill:#10BFA1;}
	.st3{clip-path:url(#SVGID_8_);}
	.st4{clip-path:url(#SVGID_10_);enable-background:new    ;}
	.st5{clip-path:url(#SVGID_12_);}
	.st6{clip-path:url(#SVGID_14_);}
	.st7{clip-path:url(#SVGID_16_);fill:#10BFA1;}
	.st8{clip-path:url(#SVGID_18_);}
	.st9{clip-path:url(#SVGID_20_);fill:#10BFA1;}
	.st10{clip-path:url(#SVGID_22_);}
	.st11{clip-path:url(#SVGID_24_);fill:#10BFA1;}
	.st12{clip-path:url(#SVGID_26_);}
	.st13{clip-path:url(#SVGID_28_);fill:#10BFA1;}
	.st14{clip-path:url(#SVGID_30_);}
	.st15{clip-path:url(#SVGID_32_);fill:#10BFA1;}
	.st16{clip-path:url(#SVGID_34_);}
	.st17{clip-path:url(#SVGID_36_);fill:#10BFA1;}
	.st18{clip-path:url(#SVGID_38_);}
	.st19{clip-path:url(#SVGID_40_);fill:#10BFA1;}
	.st20{clip-path:url(#SVGID_42_);}
	.st21{clip-path:url(#SVGID_44_);fill:#10BFA1;}
	.st22{fill:#10BFA1;}
	.st23{fill:#FFFFFF;}
	.st24{clip-path:url(#SVGID_48_);}
	.st25{clip-path:url(#SVGID_50_);fill:#10BFA1;}
	.st26{clip-path:url(#SVGID_52_);}
	.st27{clip-path:url(#SVGID_54_);enable-background:new    ;}
	.st28{clip-path:url(#SVGID_56_);}
	.st29{clip-path:url(#SVGID_58_);}
	.st30{clip-path:url(#SVGID_60_);fill:#10BFA1;}
	.st31{clip-path:url(#SVGID_62_);}
	.st32{clip-path:url(#SVGID_64_);fill:#10BFA1;}
	.st33{clip-path:url(#SVGID_66_);}
	.st34{clip-path:url(#SVGID_68_);fill:#10BFA1;}
	.st35{clip-path:url(#SVGID_70_);}
	.st36{clip-path:url(#SVGID_72_);fill:#10BFA1;}
	.st37{clip-path:url(#SVGID_74_);}
	.st38{clip-path:url(#SVGID_76_);fill:#10BFA1;}
	.st39{clip-path:url(#SVGID_78_);}
	.st40{clip-path:url(#SVGID_80_);fill:#10BFA1;}
	.st41{clip-path:url(#SVGID_82_);}
	.st42{clip-path:url(#SVGID_84_);fill:#10BFA1;}
	.st43{clip-path:url(#SVGID_86_);}
	.st44{clip-path:url(#SVGID_88_);fill:#10BFA1;}
</style>
<rect x="-46.8" y="-44" class="st0" width="175.8" height="104.5"/>
<g>
	<g>
		<defs>
			<polyline id="SVGID_1_" points="-56.2,966 967.8,966 967.8,-58 			"/>
		</defs>
		<clipPath id="SVGID_2_">
			<use xlink:href="#SVGID_1_"  style="overflow:visible;"/>
		</clipPath>
	</g>
	<g>
		<defs>
			<path id="SVGID_3_" d="M-442.7-490.1c-2.4-0.1-4.9,0.1-7.3,0.6l-1,0.2l-0.7,0.1c-0.3,0-0.6,0-0.9,0l-0.7-0.1l-1-0.2
				c-2.4-0.5-4.8-0.7-7.3-0.6l-1.7,0.1l0.6,4.2c0.3,2,2.4,3.5,4,3.5l1.5,0c2,0,3.6-1.4,4.2-4.5c0,0,0,0,0,0c0-0.2,0.2-0.3,0.4-0.4
				c0.3-0.1,0.7-0.1,1,0c0.2,0.1,0.3,0.2,0.4,0.4c0,0,0,0,0,0.1c0.6,3.1,2.2,4.5,4.2,4.5l1.5,0c1.6,0,3.8-1.5,4-3.5l0.6-4.2
				L-442.7-490.1z"/>
		</defs>
		<clipPath id="SVGID_4_">
			<use xlink:href="#SVGID_3_"  style="overflow:visible;"/>
		</clipPath>
		<g class="st1">
			<defs>
				<rect id="SVGID_5_" x="-490.2" y="-525" width="1024" height="1024"/>
			</defs>
			<clipPath id="SVGID_6_">
				<use xlink:href="#SVGID_5_"  style="overflow:visible;"/>
			</clipPath>
			<rect x="-468.2" y="-495.2" class="st2" width="32.3" height="17.8"/>
		</g>
	</g>
	<g>
		<defs>
			<rect id="SVGID_7_" x="-471.2" y="-506.2" width="76" height="37.8"/>
		</defs>
		<clipPath id="SVGID_8_">
			<use xlink:href="#SVGID_7_"  style="overflow:visible;"/>
		</clipPath>
		<g class="st3">
			<defs>
				<rect id="SVGID_9_" x="-490.2" y="-525" width="1024" height="1024"/>
			</defs>
			<clipPath id="SVGID_10_">
				<use xlink:href="#SVGID_9_"  style="overflow:visible;"/>
			</clipPath>
			<g class="st4">
				<g>
					<defs>
						<rect id="SVGID_11_" x="-425.2" y="-497.2" width="21" height="21"/>
					</defs>
					<clipPath id="SVGID_12_">
						<use xlink:href="#SVGID_11_"  style="overflow:visible;"/>
					</clipPath>
					<g class="st5">
						<defs>
							<rect id="SVGID_13_" x="-419.2" y="-485.2" width="14.7" height="2.9"/>
						</defs>
						<clipPath id="SVGID_14_">
							<use xlink:href="#SVGID_13_"  style="overflow:visible;"/>
						</clipPath>
						<g class="st6">
							<defs>
								<rect id="SVGID_15_" x="-463.2" y="-497.2" width="59" height="21"/>
							</defs>
							<clipPath id="SVGID_16_">
								<use xlink:href="#SVGID_15_"  style="overflow:visible;"/>
							</clipPath>
							<rect x="-424.2" y="-490.2" class="st7" width="24.7" height="12.9"/>
						</g>
					</g>
					<g class="st5">
						<defs>
							<rect id="SVGID_17_" x="-419.2" y="-497.2" width="2.9" height="14.7"/>
						</defs>
						<clipPath id="SVGID_18_">
							<use xlink:href="#SVGID_17_"  style="overflow:visible;"/>
						</clipPath>
						<g class="st8">
							<defs>
								<rect id="SVGID_19_" x="-463.2" y="-497.2" width="59" height="21"/>
							</defs>
							<clipPath id="SVGID_20_">
								<use xlink:href="#SVGID_19_"  style="overflow:visible;"/>
							</clipPath>
							<rect x="-424.2" y="-502.2" class="st9" width="12.9" height="24.7"/>
						</g>
					</g>
					<g class="st5">
						<defs>
							<rect id="SVGID_21_" x="-419.2" y="-497.2" width="14.7" height="2.9"/>
						</defs>
						<clipPath id="SVGID_22_">
							<use xlink:href="#SVGID_21_"  style="overflow:visible;"/>
						</clipPath>
						<g class="st10">
							<defs>
								<rect id="SVGID_23_" x="-463.2" y="-497.2" width="59" height="21"/>
							</defs>
							<clipPath id="SVGID_24_">
								<use xlink:href="#SVGID_23_"  style="overflow:visible;"/>
							</clipPath>
							<rect x="-424.2" y="-502.2" class="st11" width="24.7" height="12.9"/>
						</g>
					</g>
					<g class="st5">
						<defs>
							<rect id="SVGID_25_" x="-407.2" y="-491.2" width="2.9" height="8.8"/>
						</defs>
						<clipPath id="SVGID_26_">
							<use xlink:href="#SVGID_25_"  style="overflow:visible;"/>
						</clipPath>
						<g class="st12">
							<defs>
								<rect id="SVGID_27_" x="-463.2" y="-497.2" width="59" height="21"/>
							</defs>
							<clipPath id="SVGID_28_">
								<use xlink:href="#SVGID_27_"  style="overflow:visible;"/>
							</clipPath>
							<rect x="-412.2" y="-496.2" class="st13" width="12.9" height="18.8"/>
						</g>
					</g>
					<g class="st5">
						<defs>
							<rect id="SVGID_29_" x="-413.2" y="-491.2" width="8.8" height="2.9"/>
						</defs>
						<clipPath id="SVGID_30_">
							<use xlink:href="#SVGID_29_"  style="overflow:visible;"/>
						</clipPath>
						<g class="st14">
							<defs>
								<rect id="SVGID_31_" x="-463.2" y="-497.2" width="59" height="21"/>
							</defs>
							<clipPath id="SVGID_32_">
								<use xlink:href="#SVGID_31_"  style="overflow:visible;"/>
							</clipPath>
							<rect x="-418.2" y="-496.2" class="st15" width="18.8" height="12.9"/>
						</g>
					</g>
					<g class="st5">
						<defs>
							<rect id="SVGID_33_" x="-419.2" y="-485.2" width="14.7" height="2.9"/>
						</defs>
						<clipPath id="SVGID_34_">
							<use xlink:href="#SVGID_33_"  style="overflow:visible;"/>
						</clipPath>
						<g class="st16">
							<defs>
								<rect id="SVGID_35_" x="-463.2" y="-497.2" width="59" height="21"/>
							</defs>
							<clipPath id="SVGID_36_">
								<use xlink:href="#SVGID_35_"  style="overflow:visible;"/>
							</clipPath>
							<rect x="-424.2" y="-490.2" class="st17" width="24.7" height="12.9"/>
						</g>
					</g>
					<g class="st5">
						<defs>
							<rect id="SVGID_37_" x="-425.2" y="-479.2" width="14.7" height="2.9"/>
						</defs>
						<clipPath id="SVGID_38_">
							<use xlink:href="#SVGID_37_"  style="overflow:visible;"/>
						</clipPath>
						<g class="st18">
							<defs>
								<rect id="SVGID_39_" x="-463.2" y="-497.2" width="59" height="21"/>
							</defs>
							<clipPath id="SVGID_40_">
								<use xlink:href="#SVGID_39_"  style="overflow:visible;"/>
							</clipPath>
							<rect x="-430.2" y="-484.2" class="st19" width="24.7" height="12.9"/>
						</g>
					</g>
					<g class="st5">
						<defs>
							<rect id="SVGID_41_" x="-425.2" y="-491.2" width="2.9" height="14.7"/>
						</defs>
						<clipPath id="SVGID_42_">
							<use xlink:href="#SVGID_41_"  style="overflow:visible;"/>
						</clipPath>
						<g class="st20">
							<defs>
								<rect id="SVGID_43_" x="-463.2" y="-497.2" width="59" height="21"/>
							</defs>
							<clipPath id="SVGID_44_">
								<use xlink:href="#SVGID_43_"  style="overflow:visible;"/>
							</clipPath>
							<rect x="-430.2" y="-496.2" class="st21" width="12.9" height="24.7"/>
						</g>
					</g>
				</g>
			</g>
		</g>
	</g>
</g>
<g>
	<g>
		<defs>
			<polyline id="SVGID_45_" points="-56.2,1026 967.8,1026 967.8,2 			"/>
		</defs>
		<clipPath id="SVGID_46_">
			<use xlink:href="#SVGID_45_"  style="overflow:visible;"/>
		</clipPath>
	</g>
</g>
<g>
	<rect class="st22" width="31.5" height="29.7"/>
	<g>
		<path class="st23" d="M6.7,23.9L6.7,23.9l0-18.1h0c1.7,0,3,1.4,3,3v12.1C9.7,22.5,8.3,23.9,6.7,23.9z"/>
		<path class="st23" d="M6.7,23.9v-3h15.1c1.7,0,3,1.4,3,3v0H6.7z"/>
		<path class="st23" d="M24.8,5.8L24.8,5.8c0,1.7-1.4,3-3,3H13v0c0-1.7,1.4-3,3-3H24.8z"/>
		<path class="st23" d="M16,17.6L16,17.6c-1.7,0-3-1.4-3-3V8.8c0-1.7,1.4-3,3-3h0V17.6z"/>
		<path class="st23" d="M13.1,14.6L13.1,14.6l11.8,0v3h-8.8C14.4,17.6,13.1,16.3,13.1,14.6z"/>
		<path class="st23" d="M24.8,11.5L24.8,11.5l0,3.1c0,1.7-1.4,3-3,3h0v-3.1C21.8,12.8,23.2,11.5,24.8,11.5z"/>
	</g>
</g>
<path class="st22" d="M73.9,104.3L73.9,104.3l0-24h0c2.2,0,4,1.8,4,4v16C77.9,102.5,76.1,104.3,73.9,104.3z"/>
<path class="st22" d="M73.9,104.3v-4h20c2.2,0,4,1.8,4,4l0,0H73.9z"/>
<path class="st22" d="M97.9,80.3L97.9,80.3c0,2.2-1.8,4-4,4H82.3l0,0c0-2.2,1.8-4,4-4H97.9z"/>
<path class="st22" d="M86.3,96L86.3,96c-2.2,0-4-1.8-4-4v-7.6c0-2.2,1.8-4,4-4h0V96z"/>
<path class="st22" d="M82.4,92L82.4,92L98,92v4H86.4C84.2,96,82.4,94.2,82.4,92z"/>
<path class="st22" d="M98,87.8L98,87.8l0,8.1h-4v-4.1C94,89.6,95.8,87.8,98,87.8z"/>
<g>
	<defs>
		<path id="SVGID_47_" d="M-442.7-490.1c-2.4-0.1-4.9,0.1-7.3,0.6l-1,0.2l-0.7,0.1c-0.3,0-0.6,0-0.9,0l-0.7-0.1l-1-0.2
			c-2.4-0.5-4.8-0.7-7.3-0.6l-1.7,0.1l0.6,4.2c0.3,2,2.4,3.5,4,3.5l1.5,0c2,0,3.6-1.4,4.2-4.5c0,0,0,0,0,0c0-0.2,0.2-0.3,0.4-0.4
			c0.3-0.1,0.7-0.1,1,0c0.2,0.1,0.3,0.2,0.4,0.4c0,0,0,0,0,0.1c0.6,3.1,2.2,4.5,4.2,4.5l1.5,0c1.6,0,3.8-1.5,4-3.5l0.6-4.2
			L-442.7-490.1z"/>
	</defs>
	<clipPath id="SVGID_48_">
		<use xlink:href="#SVGID_47_"  style="overflow:visible;"/>
	</clipPath>
	<g class="st24">
		<defs>
			<rect id="SVGID_49_" x="-490.2" y="-525" width="1024" height="1024"/>
		</defs>
		<clipPath id="SVGID_50_">
			<use xlink:href="#SVGID_49_"  style="overflow:visible;"/>
		</clipPath>
		<rect x="-468.2" y="-495.2" class="st25" width="32.3" height="17.8"/>
	</g>
</g>
<g>
	<defs>
		<rect id="SVGID_51_" x="-471.2" y="-506.2" width="76" height="37.8"/>
	</defs>
	<clipPath id="SVGID_52_">
		<use xlink:href="#SVGID_51_"  style="overflow:visible;"/>
	</clipPath>
	<g class="st26">
		<defs>
			<rect id="SVGID_53_" x="-490.2" y="-525" width="1024" height="1024"/>
		</defs>
		<clipPath id="SVGID_54_">
			<use xlink:href="#SVGID_53_"  style="overflow:visible;"/>
		</clipPath>
		<g class="st27">
			<g>
				<defs>
					<rect id="SVGID_55_" x="-425.2" y="-497.2" width="21" height="21"/>
				</defs>
				<clipPath id="SVGID_56_">
					<use xlink:href="#SVGID_55_"  style="overflow:visible;"/>
				</clipPath>
				<g class="st28">
					<defs>
						<rect id="SVGID_57_" x="-419.2" y="-485.2" width="14.7" height="2.9"/>
					</defs>
					<clipPath id="SVGID_58_">
						<use xlink:href="#SVGID_57_"  style="overflow:visible;"/>
					</clipPath>
					<g class="st29">
						<defs>
							<rect id="SVGID_59_" x="-463.2" y="-497.2" width="59" height="21"/>
						</defs>
						<clipPath id="SVGID_60_">
							<use xlink:href="#SVGID_59_"  style="overflow:visible;"/>
						</clipPath>
						<rect x="-424.2" y="-490.2" class="st30" width="24.7" height="12.9"/>
					</g>
				</g>
				<g class="st28">
					<defs>
						<rect id="SVGID_61_" x="-419.2" y="-497.2" width="2.9" height="14.7"/>
					</defs>
					<clipPath id="SVGID_62_">
						<use xlink:href="#SVGID_61_"  style="overflow:visible;"/>
					</clipPath>
					<g class="st31">
						<defs>
							<rect id="SVGID_63_" x="-463.2" y="-497.2" width="59" height="21"/>
						</defs>
						<clipPath id="SVGID_64_">
							<use xlink:href="#SVGID_63_"  style="overflow:visible;"/>
						</clipPath>
						<rect x="-424.2" y="-502.2" class="st32" width="12.9" height="24.7"/>
					</g>
				</g>
				<g class="st28">
					<defs>
						<rect id="SVGID_65_" x="-419.2" y="-497.2" width="14.7" height="2.9"/>
					</defs>
					<clipPath id="SVGID_66_">
						<use xlink:href="#SVGID_65_"  style="overflow:visible;"/>
					</clipPath>
					<g class="st33">
						<defs>
							<rect id="SVGID_67_" x="-463.2" y="-497.2" width="59" height="21"/>
						</defs>
						<clipPath id="SVGID_68_">
							<use xlink:href="#SVGID_67_"  style="overflow:visible;"/>
						</clipPath>
						<rect x="-424.2" y="-502.2" class="st34" width="24.7" height="12.9"/>
					</g>
				</g>
				<g class="st28">
					<defs>
						<rect id="SVGID_69_" x="-407.2" y="-491.2" width="2.9" height="8.8"/>
					</defs>
					<clipPath id="SVGID_70_">
						<use xlink:href="#SVGID_69_"  style="overflow:visible;"/>
					</clipPath>
					<g class="st35">
						<defs>
							<rect id="SVGID_71_" x="-463.2" y="-497.2" width="59" height="21"/>
						</defs>
						<clipPath id="SVGID_72_">
							<use xlink:href="#SVGID_71_"  style="overflow:visible;"/>
						</clipPath>
						<rect x="-412.2" y="-496.2" class="st36" width="12.9" height="18.8"/>
					</g>
				</g>
				<g class="st28">
					<defs>
						<rect id="SVGID_73_" x="-413.2" y="-491.2" width="8.8" height="2.9"/>
					</defs>
					<clipPath id="SVGID_74_">
						<use xlink:href="#SVGID_73_"  style="overflow:visible;"/>
					</clipPath>
					<g class="st37">
						<defs>
							<rect id="SVGID_75_" x="-463.2" y="-497.2" width="59" height="21"/>
						</defs>
						<clipPath id="SVGID_76_">
							<use xlink:href="#SVGID_75_"  style="overflow:visible;"/>
						</clipPath>
						<rect x="-418.2" y="-496.2" class="st38" width="18.8" height="12.9"/>
					</g>
				</g>
				<g class="st28">
					<defs>
						<rect id="SVGID_77_" x="-419.2" y="-485.2" width="14.7" height="2.9"/>
					</defs>
					<clipPath id="SVGID_78_">
						<use xlink:href="#SVGID_77_"  style="overflow:visible;"/>
					</clipPath>
					<g class="st39">
						<defs>
							<rect id="SVGID_79_" x="-463.2" y="-497.2" width="59" height="21"/>
						</defs>
						<clipPath id="SVGID_80_">
							<use xlink:href="#SVGID_79_"  style="overflow:visible;"/>
						</clipPath>
						<rect x="-424.2" y="-490.2" class="st40" width="24.7" height="12.9"/>
					</g>
				</g>
				<g class="st28">
					<defs>
						<rect id="SVGID_81_" x="-425.2" y="-479.2" width="14.7" height="2.9"/>
					</defs>
					<clipPath id="SVGID_82_">
						<use xlink:href="#SVGID_81_"  style="overflow:visible;"/>
					</clipPath>
					<g class="st41">
						<defs>
							<rect id="SVGID_83_" x="-463.2" y="-497.2" width="59" height="21"/>
						</defs>
						<clipPath id="SVGID_84_">
							<use xlink:href="#SVGID_83_"  style="overflow:visible;"/>
						</clipPath>
						<rect x="-430.2" y="-484.2" class="st42" width="24.7" height="12.9"/>
					</g>
				</g>
				<g class="st28">
					<defs>
						<rect id="SVGID_85_" x="-425.2" y="-491.2" width="2.9" height="14.7"/>
					</defs>
					<clipPath id="SVGID_86_">
						<use xlink:href="#SVGID_85_"  style="overflow:visible;"/>
					</clipPath>
					<g class="st43">
						<defs>
							<rect id="SVGID_87_" x="-463.2" y="-497.2" width="59" height="21"/>
						</defs>
						<clipPath id="SVGID_88_">
							<use xlink:href="#SVGID_87_"  style="overflow:visible;"/>
						</clipPath>
						<rect x="-430.2" y="-496.2" class="st44" width="12.9" height="24.7"/>
					</g>
				</g>
			</g>
		</g>
	</g>
</g>
<g>
	<rect x="31.5" class="st23" width="31.5" height="29.7"/>
	<path class="st22" d="M57,10.8c-2.5-0.1-5,0.1-7.5,0.6l-1,0.2l-0.8,0.1c-0.3,0-0.6,0-0.9,0l-0.7-0.1l-1-0.2c-2.5-0.5-5-0.7-7.5-0.6
		L35.8,11l0.6,4.3c0.3,2.1,2.5,3.6,4.2,3.6l1.5,0c2.1,0,3.7-1.4,4.3-4.7c0,0,0,0,0,0c0.1-0.2,0.2-0.4,0.4-0.4c0.3-0.1,0.7-0.1,1.1,0
		c0.2,0.1,0.4,0.2,0.4,0.4c0,0,0,0,0,0.1c0.6,3.2,2.3,4.6,4.3,4.7l1.5,0c1.7,0,3.9-1.5,4.2-3.6l0.6-4.3L57,10.8z"/>
</g>
<g>
	<rect x="1" y="-80" class="st22" width="31.5" height="29.7"/>
	<g>
		<path class="st23" d="M6.7-55.2L6.7-55.2l0-20h0c1.8,0,3.3,1.5,3.3,3.3v13.3C10-56.7,8.6-55.2,6.7-55.2z"/>
		<path class="st23" d="M6.7-55.2v-3.3h16.6c1.8,0,3.3,1.5,3.3,3.3v0H6.7z"/>
		<path class="st23" d="M26.7-75.1L26.7-75.1c0,1.8-1.5,3.3-3.3,3.3h-9.7l0,0c0-1.8,1.5-3.3,3.3-3.3H26.7z"/>
		<path class="st23" d="M17.1-62.1L17.1-62.1c-1.8,0-3.3-1.5-3.3-3.3v-6.3c0-1.8,1.5-3.3,3.3-3.3h0V-62.1z"/>
		<path class="st23" d="M13.8-65.4L13.8-65.4l13,0v3.3h-9.7C15.3-62.1,13.8-63.6,13.8-65.4z"/>
		<path class="st23" d="M26.8-68.9L26.8-68.9l0,6.8h-3.3v-3.4C23.5-67.4,24.9-68.9,26.8-68.9z"/>
	</g>
</g>
<g>
	<rect x="1.2" y="-50.3" class="st23" width="31.5" height="29.7"/>
	<path class="st22" d="M26.6-39.5c-2.5-0.1-5,0.1-7.5,0.6l-1,0.2l-0.8,0.1c-0.3,0-0.6,0-0.9,0l-0.7-0.1l-1-0.2
		c-2.5-0.5-5-0.7-7.5-0.6l-1.8,0.1L6-35.1c0.3,2.1,2.5,3.6,4.2,3.6l1.5,0c2.1,0,3.7-1.4,4.3-4.7c0,0,0,0,0,0
		c0.1-0.2,0.2-0.4,0.4-0.4c0.3-0.1,0.7-0.1,1.1,0c0.2,0.1,0.4,0.2,0.4,0.4c0,0,0,0,0,0.1c0.6,3.2,2.3,4.6,4.3,4.7l1.5,0
		c1.7,0,3.9-1.5,4.2-3.6l0.6-4.3L26.6-39.5z"/>
</g>
</svg>
